HIERARCHY
ROOT Hips
{
	OFFSET 0.000000 0.000000 0.000000
	CHANNELS 6 Xposition Yposition Zposition Zrotation Yrotation Xrotation 
	JOINT LeftUpLeg_virtual
	{
		OFFSET 0.000000 0.000000 0.000000
		CHANNELS 3 Zrotation Yrotation Xrotation
		JOINT LeftUpLeg
		{
			OFFSET 10.205400 -3.823500 0.155100
			CHANNELS 3 Zrotation Yrotation Xrotation
			JOINT LeftLeg
			{
				OFFSET 0.708757 -12.982077 0.567790
				CHANNELS 3 Zrotation Yrotation Xrotation
				JOINT LeftFoot
				{
					OFFSET -0.708756 -10.717838 -2.184338
					CHANNELS 3 Zrotation Yrotation Xrotation
					JOINT LeftToeBase
					{
						OFFSET 0.108149 -7.191104 7.560241
						CHANNELS 3 Zrotation Yrotation Xrotation
						End Site
						{
							OFFSET 0.000000 0.000000 0.000000
						}
					}
				}
			}
		}
	}
	JOINT RightUpLeg_virtual
	{
		OFFSET 0.000000 0.000000 0.000000
		CHANNELS 3 Zrotation Yrotation Xrotation
		JOINT RightUpLeg
		{
			OFFSET -10.205400 -3.823500 0.005500
			CHANNELS 3 Zrotation Yrotation Xrotation
			JOINT RightLeg
			{
				OFFSET -0.708756 -12.982134 0.610632
				CHANNELS 3 Zrotation Yrotation Xrotation
				JOINT RightFoot
				{
					OFFSET 0.708754 -10.717769 -1.945823
					CHANNELS 3 Zrotation Yrotation Xrotation
					JOINT RightToeBase
					{
						OFFSET -0.108140 -7.191069 7.372968
						CHANNELS 3 Zrotation Yrotation Xrotation
						End Site
						{
							OFFSET 0.000000 0.000000 0.000000
						}
					}
				}
			}
		}
	}
	JOINT Spine_virtual
	{
		OFFSET 0.000000 0.000000 0.000000
		CHANNELS 3 Zrotation Yrotation Xrotation
		JOINT Spine
		{
			OFFSET 0.000000 6.876099 0.125700
			CHANNELS 3 Zrotation Yrotation Xrotation
			JOINT Spine1
			{
				OFFSET 0.000000 8.022060 0.146608
				CHANNELS 3 Zrotation Yrotation Xrotation
				JOINT Spine2
				{
					OFFSET 0.000000 9.168068 0.167552
					CHANNELS 3 Zrotation Yrotation Xrotation
					JOINT Neck_virtual
					{
						OFFSET 0.000000 0.000000 0.000000
						CHANNELS 3 Zrotation Yrotation Xrotation
						JOINT Neck
						{
							OFFSET 0.000000 10.314075 0.188496
							CHANNELS 3 Zrotation Yrotation Xrotation
							JOINT Head
							{
								OFFSET 0.000000 7.643700 -2.377400
								CHANNELS 3 Zrotation Yrotation Xrotation
								End Site
								{
									OFFSET 0.000000 0.000000 0.000000
								}
							}
						}
					}
					JOINT LeftShoulder_virtual
					{
						OFFSET 0.000000 0.000000 0.000000
						CHANNELS 3 Zrotation Yrotation Xrotation
						JOINT LeftShoulder
						{
							OFFSET 4.392200 8.824978 0.174984
							CHANNELS 3 Zrotation Yrotation Xrotation
							JOINT LeftArm
							{
								OFFSET 8.771219 -2.981674 -0.026999
								CHANNELS 3 Zrotation Yrotation Xrotation
								JOINT LeftForeArm
								{
									OFFSET 8.512804 0.000000 -0.000000
									CHANNELS 3 Zrotation Yrotation Xrotation
									JOINT LeftHand
									{
										OFFSET 18.484802 0.000000 -0.000000
										CHANNELS 3 Zrotation Yrotation Xrotation
										End Site
										{
											OFFSET 0.000000 0.000000 0.000000
										}
									}
								}
							}
						}
					}
					JOINT RightShoulder_virtual
					{
						OFFSET 0.000000 0.000000 0.000000
						CHANNELS 3 Zrotation Yrotation Xrotation
						JOINT RightShoulder
						{
							OFFSET -4.392200 8.824993 0.141379
							CHANNELS 3 Zrotation Yrotation Xrotation
							JOINT RightArm
							{
								OFFSET -8.771282 -2.981682 -0.094208
								CHANNELS 3 Zrotation Yrotation Xrotation
								JOINT RightForeArm
								{
									OFFSET -8.494598 0.000000 0.000000
									CHANNELS 3 Zrotation Yrotation Xrotation
									JOINT RightHand
									{
										OFFSET -18.483803 0.000000 0.000001
										CHANNELS 3 Zrotation Yrotation Xrotation
										End Site
										{
											OFFSET 0.000000 0.000000 0.000000
										}
									}
								}
							}
						}
					}
				}
			}
		}
	}
}
MOTION
Frames: 9
Frame Time: 0.033333
-2.242526 20.016386 13.724579 -179.951839 6.095831 -179.841162 1.188698 -1.426913 -18.681223 -4.244142 5.833557 -79.875927 14.694556 4.878408 83.079457 3.116213 -14.376940 8.745743 0.000000 0.000000 0.000000 1.200737 5.072930 -18.786980 11.262353 5.237951 -86.534474 -5.635992 -0.805376 106.809522 -9.871449 13.751678 6.056763 0.000000 0.000000 0.000000 -1.901692 5.772761 -17.384358 -7.845163 -8.299162 -2.535395 -2.519720 -0.032534 12.590448 -0.025510 0.026570 0.000452 -3.048261 1.786030 17.302187 -3.684405 -3.534546 25.944882 0.000000 0.000000 0.000000 -0.090170 2.146363 12.550435 -19.407790 -9.124769 2.758214 -31.267544 16.757507 29.850198 -40.822654 -82.721391 50.970959 0.000000 0.000000 0.000000 -4.969241 3.655242 12.365689 13.030872 -1.577594 -11.342929 18.474589 -39.581298 -16.782092 -5.015186 63.972474 -1.666853 0.000000 0.000000 0.000000 
-2.299609 19.978138 13.942281 -179.869781 6.340809 -179.886556 0.885093 -1.184595 -19.032276 -3.893792 6.092430 -79.414452 15.077040 5.950758 82.529148 4.336731 -13.881133 9.578874 0.000000 0.000000 0.000000 1.350144 6.035766 -19.354471 10.310808 7.056931 -85.538161 -7.007868 -0.425838 99.328996 -9.830192 13.397803 7.981611 0.000000 0.000000 0.000000 -2.020386 6.107842 -17.301878 -8.088008 -8.056365 -2.437322 -2.508597 -0.081657 12.456462 -0.002923 -0.013063 0.025853 -3.079640 1.855306 17.240420 -3.455431 -3.489379 25.975998 0.000000 0.000000 0.000000 -0.127609 2.171034 12.598608 -19.627848 -9.349883 2.560445 -31.373204 17.093209 29.027638 -37.921712 -82.610578 48.595536 0.000000 0.000000 0.000000 -4.991239 3.687404 12.417613 12.795220 -1.505619 -11.484659 18.290367 -39.860929 -18.818500 -5.287219 61.984622 -1.625699 0.000000 0.000000 0.000000 
-2.368475 19.948164 14.175009 -179.682852 6.897947 -179.824046 0.537696 -0.867937 -19.480193 -3.222158 6.394000 -79.350406 13.585093 5.776221 81.700551 3.939268 -14.522516 10.709124 0.000000 0.000000 0.000000 1.334287 6.903168 -19.727439 10.077392 9.171026 -84.394664 -7.961574 -0.579553 90.625129 -9.673810 12.821768 10.308447 0.000000 0.000000 0.000000 -1.988980 6.514193 -17.193294 -8.243000 -7.842924 -2.337894 -2.512723 -0.042421 12.328328 -0.033021 0.022868 0.055660 -3.033871 1.915534 17.136152 -3.258931 -3.551292 25.834835 0.000000 0.000000 0.000000 -0.087266 2.072395 12.549872 -19.659781 -9.475748 2.494754 -31.466678 17.347835 28.462384 -36.393051 -82.731909 47.607532 0.000000 0.000000 0.000000 -4.902948 3.660014 12.426258 12.549972 -1.327892 -11.721608 18.218418 -40.034583 -20.928094 -5.301338 60.109490 -1.328212 0.000000 0.000000 0.000000 
-2.449755 19.919558 14.352195 -179.589278 7.392700 -179.833034 0.199575 -0.734767 -19.747045 -2.467575 6.268308 -79.363219 12.975197 5.645985 81.231003 3.826970 -15.075015 11.348910 0.000000 0.000000 0.000000 1.190022 7.311433 -20.074730 10.651625 11.103667 -83.577050 -8.591462 -0.971816 83.129761 -9.342766 12.089725 11.472501 0.000000 0.000000 0.000000 -2.121330 6.697218 -16.935907 -8.292726 -7.666248 -2.219256 -2.440428 -0.037747 12.299185 -0.014842 0.030563 0.050283 -2.955365 1.934198 17.030211 -3.050869 -3.657729 25.651636 0.000000 0.000000 0.000000 -0.102803 2.164382 12.567653 -19.565854 -9.702991 2.374477 -31.388186 17.530114 28.300783 -36.590628 -82.936863 48.375836 0.000000 0.000000 0.000000 -4.939529 3.654615 12.364917 12.327693 -1.150379 -11.914487 18.413422 -40.327940 -22.751333 -5.742309 58.456119 -1.455998 0.000000 0.000000 0.000000 
-2.520051 19.885197 14.463334 -179.548939 7.892211 179.936498 -0.055438 -0.567597 -19.531426 -1.530858 5.944906 -79.527021 12.682046 5.608926 81.107274 4.112696 -15.467752 11.474654 0.000000 0.000000 0.000000 1.111668 7.452932 -20.137930 11.872868 12.960806 -83.151454 -9.190197 -1.584243 76.321968 -9.101442 11.262955 12.323914 0.000000 0.000000 0.000000 -2.220621 6.881036 -16.454711 -8.347180 -7.548261 -1.942340 -2.448573 -0.084446 12.152099 -0.054217 0.017804 -0.001020 -2.918684 1.802234 16.929614 -3.042643 -3.861682 25.391971 0.000000 0.000000 0.000000 -0.057635 2.121232 12.474249 -19.426480 -9.661897 2.444923 -31.318832 17.621024 28.271987 -36.172641 -83.264220 48.541683 0.000000 0.000000 0.000000 -4.896012 3.648082 12.374842 12.161955 -0.944661 -12.126017 18.698065 -40.650042 -24.315409 -5.847804 57.026110 -1.263704 0.000000 0.000000 0.000000 
-2.579684 19.854397 14.531079 -179.617596 8.392180 -179.949202 -0.360934 -0.465766 -19.650225 -0.624691 5.418306 -79.692325 12.414233 5.633926 81.261254 4.765084 -15.661969 11.065949 0.000000 0.000000 0.000000 0.811444 7.565129 -20.143903 13.683260 14.557447 -83.535420 -9.696012 -2.262745 70.813277 -8.962088 10.494594 12.817098 0.000000 0.000000 0.000000 -2.483482 7.107297 -16.146791 -8.305856 -7.424525 -1.882727 -2.417856 -0.136274 12.077978 -0.060913 0.051559 -0.020051 -2.975973 1.856612 16.886789 -3.289331 -4.081196 25.102730 0.000000 0.000000 0.000000 -0.095176 2.054514 12.519068 -19.322566 -9.692657 2.395690 -31.166379 17.504199 28.310325 -37.039105 -83.396302 50.049270 0.000000 0.000000 0.000000 -4.874910 3.505698 12.301707 12.001884 -0.892785 -12.221454 19.202460 -41.044922 -25.753010 -6.085798 55.911150 -1.227579 0.000000 0.000000 0.000000 
-2.629127 19.838633 14.563858 -179.648974 8.855211 -179.945404 -0.523305 -0.414025 -19.361612 0.388217 4.462832 -79.978961 12.262458 5.735794 81.293390 5.709738 -15.576514 10.743111 0.000000 0.000000 0.000000 0.690673 7.517077 -19.970920 15.940642 15.845399 -84.267589 -10.173669 -3.085621 66.809263 -9.236351 9.685542 13.089744 0.000000 0.000000 0.000000 -2.639554 6.970356 -15.763998 -8.177469 -7.337245 -1.839529 -2.459160 -0.187992 11.965678 -0.039157 0.075590 -0.042728 -3.050089 1.820934 16.821243 -3.421586 -4.185512 24.786910 0.000000 0.000000 0.000000 -0.165762 2.009185 12.474702 -19.203996 -9.380387 2.489482 -31.008851 17.133740 28.642062 -38.004870 -83.661321 51.740974 0.000000 0.000000 0.000000 -4.966084 3.464660 12.262409 11.961454 -0.709323 -12.315883 19.927044 -41.311057 -26.941560 -6.276389 55.233312 -1.198233 0.000000 0.000000 0.000000 
-2.677753 19.843086 14.593493 -179.755935 9.253765 179.975362 -0.617615 -0.507983 -18.910929 1.424990 3.109801 -80.199139 12.176827 5.956910 81.145120 6.834211 -15.197647 10.499889 0.000000 0.000000 0.000000 0.468396 7.225626 -19.655719 18.450971 17.003913 -85.293804 -10.490810 -3.867970 64.374328 -9.697974 9.070175 13.122067 0.000000 0.000000 0.000000 -2.856048 6.933958 -15.318909 -7.987239 -7.348811 -1.732888 -2.562094 -0.341146 11.855663 -0.023622 0.010119 0.036297 -3.153758 1.688652 16.691517 -3.608350 -4.278950 24.485262 0.000000 0.000000 0.000000 -0.183129 1.957078 12.322957 -19.038845 -8.976009 2.594624 -30.960138 16.564804 28.992063 -41.504317 -84.069609 56.015706 0.000000 0.000000 0.000000 -5.058510 3.419639 12.129019 11.989079 -0.465856 -12.375364 21.072756 -41.399873 -28.089129 -6.447642 55.017754 -1.248540 0.000000 0.000000 0.000000 
-2.723536 19.868845 14.648570 -179.830835 9.512424 -179.998926 -0.504520 -0.659169 -18.607397 2.383743 1.715006 -80.255590 12.125526 6.101665 80.761332 8.165326 -14.702523 10.409382 0.000000 0.000000 0.000000 0.372482 6.759033 -19.396914 21.255250 17.758567 -86.437615 -10.708248 -4.634946 63.267721 -10.359311 8.759403 13.115870 0.000000 0.000000 0.000000 -3.024443 6.692312 -14.955621 -7.699770 -7.298881 -1.676930 -2.673921 -0.428937 11.804257 0.010198 -0.005704 -0.005324 -3.285549 1.623620 16.742643 -3.849630 -4.406561 24.183217 0.000000 0.000000 0.000000 -0.269553 1.817044 12.349509 -18.821983 -8.558105 2.709561 -30.741756 15.887177 29.538458 -47.655292 -84.592999 62.972801 0.000000 0.000000 0.000000 -5.140845 3.274689 12.148365 12.125082 -0.286670 -12.277367 22.739595 -41.338962 -29.201408 -6.479283 55.480216 -1.171668 0.000000 0.000000 0.000000 
